<?xml version="1.0" standalone="no"?><!DOCTYPE svg PUBLIC "-//W3C//DTD SVG 1.1//EN" "http://www.w3.org/Graphics/SVG/1.1/DTD/svg11.dtd"><svg t="1591081382047" class="icon" viewBox="0 0 1024 1024" version="1.1" xmlns="http://www.w3.org/2000/svg" p-id="3785" width="200" height="200" xmlns:xlink="http://www.w3.org/1999/xlink"><defs><style type="text/css"></style></defs><path d="M963.193613 245.797301L510.978044 468.583729 57.740519 245.797301A30.658683 30.658683 0 0 1 42.922156 204.40808a30.147705 30.147705 0 0 1 16.862275-15.84032L477.253493 7.170555a76.135729 76.135729 0 0 1 64.894212 0l417.469061 180.886227a30.658683 30.658683 0 0 1 20.9501 37.812376 32.702595 32.702595 0 0 1-17.884231 19.928143z m-543.680639 766.467066l-383.233533-206.435129A61.317365 61.317365 0 0 1 0 751.665565V335.729437A36.279441 36.279441 0 0 1 40.367265 306.603689a30.147705 30.147705 0 0 1 14.307386 5.10978l425.64471 213.077844v463.968064c0 22.994012-32.191617 41.9002-60.806387 23.50499z m183.441118 0l383.233533-206.946108a61.828343 61.828343 0 0 0 35.768463-53.652694V335.729437a36.279441 36.279441 0 0 0-41.389222-29.125748 28.61477 28.61477 0 0 0-14.307385 5.10978l-429.221557 214.610779v463.968063a41.389222 41.389222 0 0 0 47.00998 33.213573 51.097804 51.097804 0 0 0 19.417166-8.686627z" p-id="3786" fill="#1296db"></path></svg>